<mxfile host="app.diagrams.net" modified="2024-02-10T20:55:25.545Z" agent="Mozilla/5.0 (Windows NT 10.0; Win64; x64) AppleWebKit/537.36 (KHTML, like Gecko) Chrome/121.0.0.0 Safari/537.36" version="23.1.1" etag="KZ9HqSjT5grXEGFm4i5_" type="github">
  <diagram name="Page-1" id="4OIUJJv-fYA6CvuHXiQL">
    <mxGraphModel>
      <root>
        <mxCell id="0" />
        <mxCell id="1" parent="0" />
      </root>
    </mxGraphModel>
  </diagram>
</mxfile>
